<svg width="69" height="69" viewBox="0 0 69 69" fill="none" xmlns="http://www.w3.org/2000/svg">
    <path
        d="M54.625 8.625H14.375C11.2125 8.625 8.625 11.2125 8.625 14.375V34.5C8.625 37.6625 11.2125 40.25 14.375 40.25H54.625C57.7875 40.25 60.375 37.6625 60.375 34.5V14.375C60.375 11.2125 57.7875 8.625 54.625 8.625ZM54.625 25.875H43.125C43.125 30.5325 39.1575 34.5 34.5 34.5C29.8425 34.5 25.875 30.5325 25.875 25.875H14.375V14.375H54.625V25.875ZM43.125 46H60.375V54.625C60.375 57.7875 57.7875 60.375 54.625 60.375H14.375C11.2125 60.375 8.625 57.7875 8.625 54.625V46H25.875C25.875 50.7725 29.7275 54.625 34.5 54.625C39.2725 54.625 43.125 50.7725 43.125 46Z"
        fill="#FE725D"/>
</svg>
