<?xml version="1.0" encoding="UTF-8" standalone="no"?> <svg width="64" height="64" viewBox="0 0 64 64" fill="none" xmlns="http://www.w3.org/2000/svg">
<path d="M51.7999 12.67C50.3399 8.61 41.3699 6.5 32.4999 6.5C23.6299 6.5 14.7599 8.59 13.2199 12.61C13.0632 12.8474 12.9797 13.1256 12.9799 13.41V50.34C12.9702 50.4197 12.9702 50.5003 12.9799 50.58C12.975 50.6499 12.975 50.7201 12.9799 50.79C12.9799 55.62 22.7999 58.15 32.4999 58.15C42.1999 58.15 51.9999 55.62 51.9999 50.79C52.0047 50.7234 52.0047 50.6566 51.9999 50.59C52.0103 50.507 52.0103 50.423 51.9999 50.34V13.41C52.005 13.1493 51.9356 12.8926 51.7999 12.67V12.67ZM48.9999 41.78C48.9999 43.26 43.1699 46.14 32.4799 46.14C21.7899 46.14 15.9999 43.26 15.9999 41.78V36.88C19.6299 39 26.0899 40.13 32.4999 40.13C38.9099 40.13 45.3699 39 48.9999 36.88V41.78ZM48.9999 23.78C48.9999 25.25 43.1699 28.13 32.4799 28.13C21.7899 28.13 15.9999 25.24 15.9999 23.77V18C19.7499 20.2 26.4099 21.24 32.5199 21.24C38.6299 21.24 45.2699 20.17 48.9999 18V23.78ZM48.9999 32.78C48.9999 34.25 43.1699 37.13 32.4799 37.13C21.7899 37.13 15.9999 34.25 15.9999 32.78V27.87C19.6299 30 26.0899 31.12 32.4999 31.12C38.9099 31.12 45.3699 30 48.9999 27.87V32.78ZM32.4999 9.5C43.1899 9.5 48.9999 12.38 48.9999 13.86C49.0106 13.9061 49.0106 13.9539 48.9999 14C48.6499 15.52 42.8299 18.24 32.4999 18.24C22.1699 18.24 16.3499 15.49 15.9999 14C15.9933 13.9636 15.9933 13.9264 15.9999 13.89C15.9999 12.38 21.8099 9.5 32.4999 9.5ZM32.4999 55.15C21.8099 55.15 15.9999 52.27 15.9999 50.79C15.9922 50.7571 15.9922 50.7229 15.9999 50.69C16.0504 50.4628 16.0504 50.2272 15.9999 50V45.89C19.6299 48 26.0899 49.14 32.4999 49.14C38.9099 49.14 45.3699 48 48.9999 45.89V50C48.9448 50.2368 48.9448 50.4832 48.9999 50.72C49.0076 50.7529 49.0076 50.7871 48.9999 50.82C48.9999 52.27 43.1899 55.15 32.4999 55.15Z" fill="url(#paint0_linear_206_9359)"/>
<defs>
<linearGradient id="paint0_linear_206_9359" x1="12.9799" y1="32.32" x2="52.0199" y2="32.32" gradientUnits="userSpaceOnUse">
<stop stop-color="#FD2411"/>
<stop offset="0.31" stop-color="#DE170C"/>
<stop offset="0.76" stop-color="#B70606"/>
<stop offset="1" stop-color="#A80004"/>
</linearGradient>
</defs>
</svg>
