<?xml version="1.0" encoding="iso-8859-1"?>
<!-- Generator: Adobe Illustrator 19.0.0, SVG Export Plug-In . SVG Version: 6.00 Build 0)  -->
<svg xmlns="http://www.w3.org/2000/svg" xmlns:xlink="http://www.w3.org/1999/xlink" version="1.1" id="Layer_1" x="0px" y="0px" viewBox="0 0 512 512" style="enable-background:new 0 0 512 512;" xml:space="preserve">
<circle style="fill:#7FC8F1;" cx="255.996" cy="255.996" r="255.996"/>
<path style="fill:#009AE5;" d="M269.347,511.656C404.528,504.713,512,392.908,512,256.001c0-5.735-0.208-11.422-0.58-17.063  l-48.871-48.871L255.999,27.17L49.451,190.065l28.719,28.719l30.481-24.259v193H89.206v30.281l78.592,78.592  c25.336,9.298,52.551,14.7,80.92,15.494c0.303,0.01,0.605,0.022,0.909,0.028c2.114,0.051,4.233,0.08,6.358,0.08  c0.005,0,0.01,0,0.016,0c0.112,0,0.223-0.004,0.334-0.004c2.206-0.003,4.405-0.034,6.598-0.092c0.953-0.025,1.902-0.073,2.853-0.109  C266.973,511.752,268.163,511.716,269.347,511.656z"/>
<polygon style="fill:#FFFFFF;" points="403.349,417.805 108.651,417.805 108.651,186.432 255.999,69.659 403.349,186.432 "/>
<polygon style="fill:#E1E1E3;" points="403.349,186.432 255.999,69.659 255.996,69.661 255.996,417.805 403.349,417.805 "/>
<polygon style="fill:#005ED3;" points="305.788,387.524 305.788,243.731 206.212,243.731 206.212,387.524 89.206,387.524   89.206,417.805 422.794,417.805 422.794,387.524 "/>
<rect x="108.647" y="226.092" style="fill:#E1E1E3;" width="59.439" height="30.281"/>
<rect x="343.913" y="313.381" style="fill:#AEADB3;" width="59.439" height="30.281"/>
<polygon style="fill:#FF0335;" points="255.999,27.17 49.451,190.065 78.17,218.784 255.999,77.251 433.83,218.784 462.549,190.065   "/>
<circle style="fill:#7FC8F1;" cx="255.996" cy="172.97" r="49.989"/>
<polygon style="fill:#C2001B;" points="255.999,27.17 255.996,27.173 255.996,77.253 255.999,77.251 433.83,218.784   462.549,190.065 "/>
<polygon style="fill:#003D8D;" points="305.788,387.524 305.788,243.731 255.996,243.731 255.996,417.805 422.794,417.805   422.794,387.524 "/>
<path style="fill:#49BBEE;" d="M255.999,122.978c-0.001,0-0.002,0-0.003,0v99.979c0.001,0,0.002,0,0.003,0  c27.609,0,49.989-22.381,49.989-49.989S283.608,122.978,255.999,122.978z"/>
<g>
</g>
<g>
</g>
<g>
</g>
<g>
</g>
<g>
</g>
<g>
</g>
<g>
</g>
<g>
</g>
<g>
</g>
<g>
</g>
<g>
</g>
<g>
</g>
<g>
</g>
<g>
</g>
<g>
</g>
</svg>
