<svg width="69" height="69" viewBox="0 0 69 69" fill="none" xmlns="http://www.w3.org/2000/svg">
    <path
        d="M54.625 8.625H42.6075C41.4 5.29 38.2375 2.875 34.5 2.875C30.7625 2.875 27.6 5.29 26.3925 8.625H14.375C11.2125 8.625 8.625 11.2125 8.625 14.375V54.625C8.625 57.7875 11.2125 60.375 14.375 60.375H54.625C57.7875 60.375 60.375 57.7875 60.375 54.625V14.375C60.375 11.2125 57.7875 8.625 54.625 8.625ZM34.5 8.625C36.0812 8.625 37.375 9.91875 37.375 11.5C37.375 13.0813 36.0812 14.375 34.5 14.375C32.9188 14.375 31.625 13.0813 31.625 11.5C31.625 9.91875 32.9188 8.625 34.5 8.625ZM46 43.125H34.5V51.75L20.125 37.375L34.5 23V31.625H46V43.125Z"
        fill="#FE725D"/>
</svg>
