<?xml version="1.0" encoding="UTF-8"?>
<!DOCTYPE svg PUBLIC "-//W3C//DTD SVG 1.1//EN" "http://www.w3.org/Graphics/SVG/1.1/DTD/svg11.dtd">
<!-- Creator: CorelDRAW -->
<svg xmlns="http://www.w3.org/2000/svg" xml:space="preserve" width="1.70666in" height="1.70666in" version="1.1" style="shape-rendering:geometricPrecision; text-rendering:geometricPrecision; image-rendering:optimizeQuality; fill-rule:evenodd; clip-rule:evenodd"
viewBox="0 0 1706.66 1706.66"
 xmlns:xlink="http://www.w3.org/1999/xlink"
 xmlns:xodm="http://www.corel.com/coreldraw/odm/2003">
 <defs>
  <style type="text/css">
   <![CDATA[
    .fil0 {fill:black}
    .fil3 {fill:#00CB93}
    .fil2 {fill:#89CFF0}
    .fil4 {fill:#D6E3FF}
    .fil1 {fill:#FFAA83}
   ]]>
  </style>
 </defs>
 <g id="Layer_x0020_1">
  <metadata id="CorelCorpID_0Corel-Layer"/>
  <path class="fil0" d="M1284.39 1009.72c-15.14,0 -51.98,-43.65 -70.97,-62.64 -18.55,-18.55 9.56,-46.98 28.33,-28.33l42.64 42.78 155.28 -155.28c18.54,-18.54 46.97,9.53 28.33,28.33l-169.45 169.44c-3.76,3.61 -8.9,5.7 -14.17,5.7z"/>
  <path class="fil0" d="M1340.64 1195.83c-2.22,0 -4.45,-0.42 -6.53,-1.11 -282.5,-98.33 -247.92,-428.47 -243.05,-465.7 1.25,-9.44 9.03,-17.5 18.47,-18.19 182.91,-13.48 205,-96.67 231.25,-96.67 26.04,0 50.69,83.57 231.25,96.67 9.86,0.7 17.78,8.61 18.47,18.48 4.86,36.94 39.44,367.08 -243.06,465.41 -2.36,0.69 -4.59,1.11 -6.81,1.11zm-211.53 -446.67c-6.11,70.14 -11.8,322.64 211.53,405.28 223.33,-82.64 217.63,-335.28 211.53,-405.28 -119.03,-12.5 -183.89,-59.44 -211.53,-85.56 -27.64,26.11 -92.64,73.19 -211.53,85.56z"/>
  <path class="fil0" d="M1340.64 1706.66l-1208.33 0c-11.11,0 -20,-9.02 -20,-20l0 -1666.67c0,-11.11 8.89,-20 20,-20l1208.61 0c11.09,0 20,8.91 20,20l-0.28 614.16c-0,21.42 -79.43,98.99 -231.53,114.86 -6.25,70.83 -11.94,327.64 218.2,407.64 8.06,2.78 13.47,10.41 13.47,18.89l0 511.11c-0.14,10.97 -9.03,20 -20.14,20zm-1188.33 -40l1168.33 0 0 -476.94c-267.91,-103.89 -234.44,-424.17 -229.59,-460.83 1.25,-9.45 9.03,-17.5 18.48,-18.19 134.03,-9.86 195.83,-67.22 211.11,-83.89l0.28 -586.94 -1168.61 0 0 1626.81z"/>
  <path class="fil0" d="M736.61 874.72c-181.11,0 -328.33,-147.22 -328.33,-328.34 0,-181.11 147.22,-328.33 328.33,-328.33 181.11,0 328.33,147.22 328.33,328.33 0,181.12 -147.22,328.34 -328.33,328.34zm0 -616.67c-159.03,0 -288.33,129.31 -288.33,288.33 0,159.03 129.31,288.33 288.33,288.33 159.02,0 288.33,-129.31 288.33,-288.33 0,-159.02 -129.3,-288.33 -288.33,-288.33z"/>
  <path class="fil0" d="M481.47 739.58c-17.17,0 -26.17,-20.29 -15.28,-33.06 128.82,-150.98 408.66,-153.08 540.56,0 17.18,19.94 -13.37,46.12 -30.42,25.97 -116.27,-137.41 -375.59,-128.87 -480,0 -3.61,4.73 -9.17,7.09 -14.86,7.09z"/>
  <path class="fil0" d="M736.61 556.67c-53.47,0 -97.08,-43.61 -97.08,-97.08 0,-53.47 43.61,-97.08 97.08,-97.08 53.47,0 97.08,43.61 97.08,97.08 0,53.61 -43.61,97.08 -97.08,97.08zm0 -154.17c-75.15,0 -75.15,114.17 0,114.17 75.19,0 75.09,-114.17 0,-114.17z"/>
  <path class="fil0" d="M691.75 1058.06l-383.33 0c-26.33,0 -26.34,-40 0,-40l383.33 0c26.33,0 26.33,40 0,40z"/>
  <path class="fil0" d="M925.08 1216.39l-616.67 0c-26.33,0 -26.34,-40 0,-40l616.67 0c26.23,0 26.4,40 0,40z"/>
  <path class="fil0" d="M1029.26 1374.72l-720.84 0c-26.33,0 -26.34,-40 0,-40l720.84 0.01c26.23,0 26.4,40 0,40z"/>
  <path class="fil0" d="M829.25 1533.05l-520.83 0c-26.33,0 -26.34,-40 0,-40l520.83 0.01c26.33,0 26.34,40 0,40z"/>
  <path class="fil1" d="M736.61 516.67c75.19,0 75.09,-114.17 0,-114.17 -75.15,0 -75.15,114.17 0,114.17z"/>
  <path class="fil2" d="M833.69 459.59c0,53.61 -43.61,97.08 -97.08,97.08 -53.47,0 -97.08,-43.61 -97.08,-97.08 0,-53.47 43.61,-97.08 97.08,-97.08 53.47,0 97.08,43.61 97.08,97.08zm-348.91 227.16c129.19,-124.95 372.06,-126.45 503.5,0.26 23.34,-41.62 36.66,-89.59 36.66,-140.62 0,-159.02 -129.3,-288.33 -288.33,-288.33 -159.03,0 -288.33,129.31 -288.33,288.33 0,50.93 13.26,98.8 36.51,140.36z"/>
  <path class="fil3" d="M965.95 720.99c-116.69,-121.17 -351.98,-114.28 -459.09,-0.54 52.7,69.39 136.07,114.27 229.75,114.27 93.44,0 176.62,-44.65 229.34,-113.73z"/>
  <path class="fil3" d="M1282.14 704.93c-35.76,19.13 -85.77,37.24 -153.02,44.23 -3.01,34.58 -5.93,113.49 18.66,194.51 25.33,83.33 79.76,168.86 193.09,210.68 223.1,-82.72 217.41,-335.22 211.3,-405.19 -118.58,-12.45 -183.4,-59.09 -211.21,-85.26 -13.14,12.77 -32.8,27.41 -58.82,41.03zm-40.38 213.81l42.64 42.78 155.28 -155.28c18.54,-18.54 46.97,9.53 28.33,28.33l-169.45 169.44c-3.76,3.61 -8.9,5.7 -14.17,5.7 -15.14,0 -51.98,-43.65 -70.97,-62.64 -18.55,-18.55 9.56,-46.98 28.33,-28.33z"/>
  <path class="fil4" d="M1187.72 1099.21c-121.9,-136.24 -100.56,-340.81 -96.69,-370.19 0.01,-0.04 0.02,-0.09 0.02,-0.13 1.25,-9.45 9.03,-17.5 18.48,-18.19 89.75,-6.6 147.11,-34.51 179.81,-57.23 13.74,-10.37 23.47,-20.13 31.3,-27.33l0.28 -586.27 -1168.61 0 0 1626.81 1168.33 0 0 -476.9c-56.81,-22.05 -100.07,-53.82 -132.92,-90.55zm-122.77 -552.83c0,181.12 -147.22,328.34 -328.33,328.34 -112.13,0 -211.27,-56.43 -270.53,-142.41 -0.73,-0.89 -1.38,-1.85 -1.94,-2.85 -35.26,-52.33 -55.86,-115.33 -55.86,-183.08 0,-181.11 147.22,-328.33 328.33,-328.33 181.11,0 328.33,147.22 328.33,328.33zm-756.53 630l616.67 0c26.23,0 26.4,40 0,40l-616.67 0c-26.33,0 -26.34,-40 0,-40zm0 158.33l720.84 0.01c26.23,0 26.4,40 0,40l-720.84 0c-26.33,0 -26.34,-40 0,-40zm0 158.33l520.83 0.01c26.33,0 26.34,40 0,40l-520.83 0c-26.33,0 -26.34,-40 0,-40zm383.33 -475c26.33,0 26.33,40 0,40l-383.33 0c-26.33,0 -26.34,-40 0,-40l383.33 0z"/>
 </g>
</svg>
