<svg width="400" height="526" viewBox="0 0 400 526" fill="none" xmlns="http://www.w3.org/2000/svg">
    <g filter="url(#filter0_d_227_2)">
        <path
            d="M45.83 38.09C48.1033 38.6033 49.9 39.74 51.22 41.5C52.5767 43.2233 53.255 45.2033 53.255 47.44C53.255 50.74 52.1183 53.325 49.845 55.195C47.5717 57.065 44.3817 58 40.275 58H21.08V19.225H39.67C43.63 19.225 46.7283 20.105 48.965 21.865C51.2383 23.625 52.375 26.1 52.375 29.29C52.375 31.5633 51.77 33.47 50.56 35.01C49.3867 36.5133 47.81 37.54 45.83 38.09ZM31.86 34.625H37.305C40.0183 34.625 41.375 33.5067 41.375 31.27C41.375 28.96 40.0183 27.805 37.305 27.805H31.86V34.625ZM38.13 49.31C40.8433 49.31 42.2 48.1733 42.2 45.9C42.2 44.7267 41.8333 43.8283 41.1 43.205C40.4033 42.5817 39.395 42.27 38.075 42.27H31.86V49.31H38.13ZM84.1594 51.675H70.4094L68.3194 58H56.9894L71.1244 19.225H83.5544L97.6344 58H86.2494L84.1594 51.675ZM81.4644 43.425L77.2844 30.885L73.1594 43.425H81.4644ZM125.733 58L113.578 41.005V58H102.798V19.225H113.578V35.945L125.623 19.225H138.053L123.808 38.035L138.768 58H125.733ZM154.915 19.225V41.72C154.915 43.81 155.392 45.4233 156.345 46.56C157.335 47.6967 158.82 48.265 160.8 48.265C162.78 48.265 164.265 47.6967 165.255 46.56C166.282 45.3867 166.795 43.7733 166.795 41.72V19.225H177.575V41.72C177.575 45.2767 176.824 48.32 175.32 50.85C173.817 53.3433 171.764 55.2317 169.16 56.515C166.594 57.7617 163.734 58.385 160.58 58.385C157.427 58.385 154.604 57.7617 152.11 56.515C149.654 55.2317 147.71 53.3433 146.28 50.85C144.887 48.3567 144.19 45.3133 144.19 41.72V19.225H154.915ZM195.94 49.75H207.985V58H185.16V19.225H195.94V49.75Z"
            fill="white"/>
    </g>
    <g clip-path="url(#clip0_227_2)">
        <path
            d="M18.5866 509.278C24.135 520.217 35.9107 524.913 35.9107 524.913C35.9107 524.913 38.6907 511.873 33.1423 500.933C27.5939 489.994 15.8182 485.298 15.8182 485.298C15.8182 485.298 13.0382 498.338 18.5866 509.278Z"
            fill="#2F2E41"/>
        <path
            d="M22.4002 505.678C32.4174 512.086 36.2753 524.812 36.2753 524.812C36.2753 524.812 23.8922 527.15 13.8751 520.743C3.85792 514.336 0 501.61 0 501.61C0 501.61 12.3831 499.271 22.4002 505.678Z"
            fill="#F51E00"/>
        <path d="M246.986 188.042H184.486V188.992H246.986V188.042Z" fill="#F2F2F2"/>
        <path d="M230.022 188.754H229.129V197.535H230.022V188.754Z" fill="#F2F2F2"/>
        <path d="M202.79 188.754H201.897V197.535H202.79V188.754Z" fill="#F2F2F2"/>
        <path d="M278.682 233.605H216.182V234.555H278.682V233.605Z" fill="#F2F2F2"/>
        <path d="M234.039 225.062H233.147V233.843H234.039V225.062Z" fill="#F2F2F2"/>
        <path d="M261.272 225.062H260.379V233.843H261.272V225.062Z" fill="#F2F2F2"/>
        <path d="M361.718 254.963H299.218V255.913H361.718V254.963Z" fill="#F2F2F2"/>
        <path d="M317.075 246.42H316.182V255.201H317.075V246.42Z" fill="#F2F2F2"/>
        <path d="M344.307 246.42H343.414V255.201H344.307V246.42Z" fill="#F2F2F2"/>
        <path d="M355.468 475.186H292.968V476.135H355.468V475.186Z" fill="#F2F2F2"/>
        <path d="M310.825 466.643H309.932V475.423H310.825V466.643Z" fill="#F2F2F2"/>
        <path d="M338.057 466.643H337.164V475.423H338.057V466.643Z" fill="#F2F2F2"/>
        <path d="M248.772 322.834H186.272V323.783H248.772V322.834Z" fill="#F2F2F2"/>
        <path d="M204.129 314.291H203.236V323.071H204.129V314.291Z" fill="#F2F2F2"/>
        <path d="M231.361 314.291H230.468V323.071H231.361V314.291Z" fill="#F2F2F2"/>
        <path d="M268.415 437.216H205.914V438.165H268.415V437.216Z" fill="#F2F2F2"/>
        <path d="M223.772 428.673H222.879V437.454H223.772V428.673Z" fill="#F2F2F2"/>
        <path d="M251.004 428.673H250.111V437.454H251.004V428.673Z" fill="#F2F2F2"/>
        <path d="M368.414 402.569H305.914V403.519H368.414V402.569Z" fill="#F2F2F2"/>
        <path d="M323.772 394.026H322.879V402.807H323.772V394.026Z" fill="#F2F2F2"/>
        <path d="M351.004 394.026H350.111V402.807H351.004V394.026Z" fill="#F2F2F2"/>
        <path
            d="M161.634 504.268H55.9259V503.46H160.873V464.247H64.8125L60.146 453.912L60.8317 453.562L65.2911 463.439H161.634V504.268Z"
            fill="#2F2E41"/>
        <path
            d="M69.9949 524.077C74.4049 524.077 77.98 520.276 77.98 515.588C77.98 510.899 74.4049 507.098 69.9949 507.098C65.5848 507.098 62.0097 510.899 62.0097 515.588C62.0097 520.276 65.5848 524.077 69.9949 524.077Z"
            fill="#3F3D56"/>
        <path
            d="M148.706 524.077C153.116 524.077 156.691 520.276 156.691 515.588C156.691 510.899 153.116 507.098 148.706 507.098C144.296 507.098 140.72 510.899 140.72 515.588C140.72 520.276 144.296 524.077 148.706 524.077Z"
            fill="#3F3D56"/>
        <path
            d="M241.485 340.546C244.215 340.546 246.429 338.193 246.429 335.29C246.429 332.388 244.215 330.035 241.485 330.035C238.755 330.035 236.542 332.388 236.542 335.29C236.542 338.193 238.755 340.546 241.485 340.546Z"
            fill="#3F3D56"/>
        <path
            d="M172.94 450.907H54.1235L28.4145 361.567H199.416L199.261 362.092L172.94 450.907ZM54.6861 450.098H172.382L198.38 362.375H29.4423L54.6861 450.098Z"
            fill="#2F2E41"/>
        <path d="M163.665 446.258H59.3044L36.7232 367.024H186.92L186.783 367.49L163.665 446.258Z" fill="#F2F2F2"/>
        <path d="M201.547 353.585L200.812 353.378L205.83 333.269H235.021V334.078H206.415L201.547 353.585Z"
              fill="#2F2E41"/>
        <path d="M190.871 388.652H36.7225V389.46H190.871V388.652Z" fill="#2F2E41"/>
        <path d="M182.044 418.439H45.2942V419.247H182.044V418.439Z" fill="#2F2E41"/>
        <path d="M114.293 361.971H113.533V450.503H114.293V361.971Z" fill="#2F2E41"/>
        <path d="M148.342 361.946L142.883 450.475L143.642 450.528L149.101 361.998L148.342 361.946Z" fill="#2F2E41"/>
        <path d="M79.5003 361.944L78.7413 361.997L84.1687 450.529L84.9277 450.476L79.5003 361.944Z" fill="#2F2E41"/>
        <path d="M400 524.59H0V525.539H400V524.59Z" fill="#2F2E41"/>
        <path
            d="M265.808 200.367C265.808 200.367 272.334 220.114 268.318 223.152C264.302 226.19 281.873 251.001 281.873 251.001L302.957 244.925L291.411 224.165C291.411 224.165 289.905 203.405 289.905 200.367C289.905 197.329 265.808 200.367 265.808 200.367Z"
            fill="#FFD9B6"/>
        <path opacity="0.1"
              d="M266 194.35C266 194.35 272.526 214.097 268.51 217.135C264.494 220.173 282.064 244.984 282.064 244.984L303.148 238.908L291.602 218.148C291.602 218.148 290.096 197.388 290.096 194.35C290.096 191.312 266 194.35 266 194.35Z"
              fill="#FFD9B6"/>
        <path
            d="M254.854 341.128C254.854 341.128 252.949 366.445 254.854 379.61C256.759 392.774 259.617 429.231 259.617 429.231C259.617 429.231 259.617 498.092 270.095 499.105C280.572 500.117 288.193 501.13 289.145 497.079C290.098 493.029 284.383 491.003 287.24 488.978C290.098 486.953 291.05 479.864 287.24 471.763C283.43 463.661 287.24 381.635 287.24 381.635L305.338 433.281C305.338 433.281 307.243 475.813 309.148 481.889C311.053 487.965 307.243 499.105 313.911 500.117C320.578 501.13 328.199 495.054 332.009 493.029C335.819 491.003 326.294 491.003 328.199 489.991C330.104 488.978 335.819 485.94 333.914 484.927C332.009 483.915 330.104 435.307 330.104 435.307C330.104 435.307 324.865 331.508 318.197 327.457C311.529 323.407 307.243 330.384 307.243 330.384L254.854 341.128Z"
            fill="#2F2E41"/>
        <path
            d="M272 495.054V503.156C272 503.156 263.427 525.178 272 525.178C280.572 525.178 287.24 527.46 287.24 524.422V497.08L272 495.054Z"
            fill="#2F2E41"/>
        <path
            d="M328.199 495.04V503.141C328.199 503.141 336.771 525.163 328.199 525.163C319.626 525.163 312.958 527.445 312.958 524.407V497.065L328.199 495.04Z"
            fill="#2F2E41"/>
        <path
            d="M279.144 215.051C288.613 215.051 296.289 206.89 296.289 196.823C296.289 186.756 288.613 178.595 279.144 178.595C269.675 178.595 261.998 186.756 261.998 196.823C261.998 206.89 269.675 215.051 279.144 215.051Z"
            fill="#FFD9B6"/>
        <path
            d="M273.905 230.748C273.905 230.748 278.667 245.938 286.288 242.9L293.908 239.862L307.243 337.078C307.243 337.078 296.765 353.28 281.525 343.154C266.285 333.027 273.905 230.748 273.905 230.748Z"
            fill="#F51E00"/>
        <path
            d="M287.24 227.71L291.526 218.089C291.526 218.089 316.768 230.748 320.578 234.798C324.389 238.849 324.389 244.925 324.389 244.925L317.721 270.242C317.721 270.242 319.626 325.939 319.626 327.964C319.626 329.989 326.294 341.129 321.531 337.078C316.768 333.027 315.816 328.977 312.006 335.053C308.196 341.129 299.623 348.217 299.623 348.217L287.24 227.71Z"
            fill="#3F3D56"/>
        <path
            d="M320.578 300.622L317.721 328.976C317.721 328.976 300.575 345.179 304.386 346.192C308.196 347.204 310.101 343.154 310.101 343.154C310.101 343.154 316.768 350.242 320.578 346.192C324.389 342.141 333.914 303.66 333.914 303.66L320.578 300.622Z"
            fill="#FFD9B6"/>
        <path
            d="M279.509 171.062C275.708 170.917 271.64 170.846 268.436 173.023C266.961 174.116 265.668 175.462 264.609 177.006C261.488 181.201 258.791 186.479 259.95 191.684L261.297 191.125C261.297 192.515 261.006 193.887 260.446 195.142C260.636 194.556 261.271 195.503 261.101 196.096L259.617 201.27C262.056 200.32 265.089 202.244 265.46 204.977C265.63 198.967 266.216 192.077 270.801 188.558C273.114 186.784 276.04 186.242 278.856 185.761C281.453 185.317 284.176 184.894 286.664 185.803C289.152 186.712 291.271 189.417 290.707 192.149C291.854 191.729 293.137 192.579 293.704 193.719C294.271 194.86 294.3 196.205 294.318 197.495C295.54 198.414 296.932 196.589 297.43 195.088C298.6 191.564 299.64 187.814 299.01 184.137C298.38 180.461 295.562 176.948 292.047 176.936C292.474 176.437 292.701 175.782 292.682 175.109L289.785 174.849C290.52 174.738 291.197 174.359 291.698 173.776C290.535 175.137 281.39 171.133 279.509 171.062Z"
            fill="#2F2E41"/>
        <path
            d="M278.667 224.671C278.667 224.671 270.913 216.593 268.123 217.088C265.332 217.583 261.522 224.671 261.522 224.671C261.522 224.671 238.661 232.773 239.614 240.874C240.566 248.975 251.044 288.469 251.044 288.469C251.044 288.469 259.617 336.065 251.997 341.128C244.377 346.192 288.193 359.356 289.145 353.28C290.098 347.204 292.003 286.444 289.145 277.33C286.288 268.216 278.667 224.671 278.667 224.671Z"
            fill="#3F3D56"/>
        <path
            d="M312.006 240.874H323.784C323.784 240.874 332.009 279.355 332.961 283.406C333.914 287.457 335.819 306.698 334.866 306.698C333.914 306.698 314.863 302.647 314.863 305.685L312.006 240.874Z"
            fill="#3F3D56"/>
        <path
            d="M311.607 336.167H266.518C262.118 314.648 261.75 293.856 266.518 273.992H311.607C304.331 293.499 303.876 314.148 311.607 336.167Z"
            fill="#F2F2F2"/>
        <path
            d="M248.187 309.736L261.522 315.812C261.522 315.812 287.24 319.862 287.24 308.723C287.24 297.584 261.522 303.66 261.522 303.66L252.949 300.745L248.187 309.736Z"
            fill="#FFD9B6"/>
        <path
            d="M251.044 234.798L239.614 237.836L231.041 291.508C231.041 291.508 228.184 305.685 232.946 306.698C237.709 307.711 251.044 315.812 251.044 315.812C251.044 315.812 252.949 300.622 256.759 300.622L247.234 292.521L252.949 257.077L251.044 234.798Z"
            fill="#3F3D56"/>
        <path d="M89.3967 338.496H26.8967V339.445H89.3967V338.496Z" fill="#F2F2F2"/>
        <path d="M44.7538 329.953H43.861V338.733H44.7538V329.953Z" fill="#F2F2F2"/>
        <path d="M71.9859 329.953H71.0931V338.733H71.9859V329.953Z" fill="#F2F2F2"/>
        <path d="M111.272 198.009H48.7717V198.959H111.272V198.009Z" fill="#F2F2F2"/>
        <path d="M94.3073 198.721H93.4145V207.502H94.3073V198.721Z" fill="#F2F2F2"/>
        <path d="M67.0752 198.721H66.1824V207.502H67.0752V198.721Z" fill="#F2F2F2"/>
        <path d="M174.218 291.509H111.718V292.458H174.218V291.509Z" fill="#F2F2F2"/>
        <path d="M157.254 292.221H156.361V301.001H157.254V292.221Z" fill="#F2F2F2"/>
        <path d="M130.022 292.221H129.129V301.001H130.022V292.221Z" fill="#F2F2F2"/>
        <path d="M67.9681 291.034H5.46808V291.984H67.9681V291.034Z" fill="#F2F2F2"/>
        <path d="M51.0038 291.746H50.111V300.527H51.0038V291.746Z" fill="#F2F2F2"/>
        <path d="M23.7716 291.746H22.8788V300.527H23.7716V291.746Z" fill="#F2F2F2"/>
        <path d="M142.968 243.573H80.4681V244.522H142.968V243.573Z" fill="#F2F2F2"/>
        <path d="M98.3252 235.029H97.4324V243.81H98.3252V235.029Z" fill="#F2F2F2"/>
        <path d="M125.557 235.029H124.664V243.81H125.557V235.029Z" fill="#F2F2F2"/>
    </g>
    <g filter="url(#filter1_d_227_2)">
        <path
            d="M100.61 119.675H86.86L84.77 126H73.44L87.575 87.225H100.005L114.085 126H102.7L100.61 119.675ZM97.915 111.425L93.735 98.885L89.61 111.425H97.915ZM155.164 126H144.384L130.029 104.33V126H119.249V87.225H130.029L144.384 109.17V87.225H155.164V126ZM173.734 87.225V126H162.954V87.225H173.734ZM192.303 95.86V102.185H204.678V110.38H192.303V117.365H206.328V126H181.523V87.225H206.328V95.86H192.303ZM227.935 126.385C223.425 126.385 219.722 125.322 216.825 123.195C213.928 121.032 212.37 117.952 212.15 113.955H223.645C223.755 115.312 224.158 116.302 224.855 116.925C225.552 117.548 226.45 117.86 227.55 117.86C228.54 117.86 229.347 117.622 229.97 117.145C230.63 116.632 230.96 115.935 230.96 115.055C230.96 113.918 230.428 113.038 229.365 112.415C228.302 111.792 226.578 111.095 224.195 110.325C221.665 109.482 219.612 108.675 218.035 107.905C216.495 107.098 215.138 105.943 213.965 104.44C212.828 102.9 212.26 100.902 212.26 98.445C212.26 95.9517 212.883 93.825 214.13 92.065C215.377 90.2683 217.1 88.9117 219.3 87.995C221.5 87.0783 223.993 86.62 226.78 86.62C231.29 86.62 234.883 87.6833 237.56 89.81C240.273 91.9 241.722 94.8517 241.905 98.665H230.19C230.153 97.4917 229.787 96.6117 229.09 96.025C228.43 95.4383 227.568 95.145 226.505 95.145C225.698 95.145 225.038 95.3833 224.525 95.86C224.012 96.3367 223.755 97.015 223.755 97.895C223.755 98.6283 224.03 99.27 224.58 99.82C225.167 100.333 225.882 100.792 226.725 101.195C227.568 101.562 228.815 102.038 230.465 102.625C232.922 103.468 234.938 104.312 236.515 105.155C238.128 105.962 239.503 107.117 240.64 108.62C241.813 110.087 242.4 111.957 242.4 114.23C242.4 116.54 241.813 118.612 240.64 120.445C239.503 122.278 237.835 123.727 235.635 124.79C233.472 125.853 230.905 126.385 227.935 126.385Z"
            fill="white"/>
    </g>
    <defs>
        <filter id="filter0_d_227_2" x="17.08" y="19.2251" width="194.905" height="47.1597" filterUnits="userSpaceOnUse"
                color-interpolation-filters="sRGB">
            <feFlood flood-opacity="0" result="BackgroundImageFix"/>
            <feColorMatrix in="SourceAlpha" type="matrix" values="0 0 0 0 0 0 0 0 0 0 0 0 0 0 0 0 0 0 127 0"
                           result="hardAlpha"/>
            <feOffset dy="4"/>
            <feGaussianBlur stdDeviation="2"/>
            <feComposite in2="hardAlpha" operator="out"/>
            <feColorMatrix type="matrix" values="0 0 0 0 0.670833 0 0 0 0 0.00559026 0 0 0 0 0.00559026 0 0 0 0.25 0"/>
            <feBlend mode="normal" in2="BackgroundImageFix" result="effect1_dropShadow_227_2"/>
            <feBlend mode="normal" in="SourceGraphic" in2="effect1_dropShadow_227_2" result="shape"/>
        </filter>
        <filter id="filter1_d_227_2" x="69.44" y="86.6201" width="176.96" height="47.7646" filterUnits="userSpaceOnUse"
                color-interpolation-filters="sRGB">
            <feFlood flood-opacity="0" result="BackgroundImageFix"/>
            <feColorMatrix in="SourceAlpha" type="matrix" values="0 0 0 0 0 0 0 0 0 0 0 0 0 0 0 0 0 0 127 0"
                           result="hardAlpha"/>
            <feOffset dy="4"/>
            <feGaussianBlur stdDeviation="2"/>
            <feComposite in2="hardAlpha" operator="out"/>
            <feColorMatrix type="matrix" values="0 0 0 0 0.670833 0 0 0 0 0.00559026 0 0 0 0 0.00559026 0 0 0 0.25 0"/>
            <feBlend mode="normal" in2="BackgroundImageFix" result="effect1_dropShadow_227_2"/>
            <feBlend mode="normal" in="SourceGraphic" in2="effect1_dropShadow_227_2" result="shape"/>
        </filter>
        <clipPath id="clip0_227_2">
            <rect width="400" height="355" fill="white" transform="translate(0 171)"/>
        </clipPath>
    </defs>
</svg>
